%TF.GenerationSoftware,KiCad,Pcbnew,9.0.7+1*%
%TF.CreationDate,2026-03-11T21:49:19+08:00*%
%TF.ProjectId,d1minijoycon,64316d69-6e69-46a6-9f79-636f6e2e6b69,rev?*%
%TF.SameCoordinates,Original*%
%TF.FileFunction,Legend,Top*%
%TF.FilePolarity,Positive*%
%FSLAX46Y46*%
G04 Gerber Fmt 4.6, Leading zero omitted, Abs format (unit mm)*
G04 Created by KiCad (PCBNEW 9.0.7+1) date 2026-03-11 21:49:19*
%MOMM*%
%LPD*%
G01*
G04 APERTURE LIST*
%ADD10C,0.150000*%
%ADD11C,0.120000*%
%ADD12C,0.127000*%
%ADD13C,0.200000*%
%ADD14C,2.000000*%
%ADD15C,1.400000*%
G04 APERTURE END LIST*
D10*
X117630952Y-25954819D02*
X117630952Y-24954819D01*
X117630952Y-24954819D02*
X117869047Y-24954819D01*
X117869047Y-24954819D02*
X118011904Y-25002438D01*
X118011904Y-25002438D02*
X118107142Y-25097676D01*
X118107142Y-25097676D02*
X118154761Y-25192914D01*
X118154761Y-25192914D02*
X118202380Y-25383390D01*
X118202380Y-25383390D02*
X118202380Y-25526247D01*
X118202380Y-25526247D02*
X118154761Y-25716723D01*
X118154761Y-25716723D02*
X118107142Y-25811961D01*
X118107142Y-25811961D02*
X118011904Y-25907200D01*
X118011904Y-25907200D02*
X117869047Y-25954819D01*
X117869047Y-25954819D02*
X117630952Y-25954819D01*
X118630952Y-25954819D02*
X118630952Y-24954819D01*
X118630952Y-24954819D02*
X119011904Y-24954819D01*
X119011904Y-24954819D02*
X119107142Y-25002438D01*
X119107142Y-25002438D02*
X119154761Y-25050057D01*
X119154761Y-25050057D02*
X119202380Y-25145295D01*
X119202380Y-25145295D02*
X119202380Y-25288152D01*
X119202380Y-25288152D02*
X119154761Y-25383390D01*
X119154761Y-25383390D02*
X119107142Y-25431009D01*
X119107142Y-25431009D02*
X119011904Y-25478628D01*
X119011904Y-25478628D02*
X118630952Y-25478628D01*
X119583333Y-25669104D02*
X120059523Y-25669104D01*
X119488095Y-25954819D02*
X119821428Y-24954819D01*
X119821428Y-24954819D02*
X120154761Y-25954819D01*
X120488095Y-25954819D02*
X120488095Y-24954819D01*
X120488095Y-24954819D02*
X120726190Y-24954819D01*
X120726190Y-24954819D02*
X120869047Y-25002438D01*
X120869047Y-25002438D02*
X120964285Y-25097676D01*
X120964285Y-25097676D02*
X121011904Y-25192914D01*
X121011904Y-25192914D02*
X121059523Y-25383390D01*
X121059523Y-25383390D02*
X121059523Y-25526247D01*
X121059523Y-25526247D02*
X121011904Y-25716723D01*
X121011904Y-25716723D02*
X120964285Y-25811961D01*
X120964285Y-25811961D02*
X120869047Y-25907200D01*
X120869047Y-25907200D02*
X120726190Y-25954819D01*
X120726190Y-25954819D02*
X120488095Y-25954819D01*
X121250000Y-26050057D02*
X122011904Y-26050057D01*
X122821428Y-25954819D02*
X122488095Y-25478628D01*
X122250000Y-25954819D02*
X122250000Y-24954819D01*
X122250000Y-24954819D02*
X122630952Y-24954819D01*
X122630952Y-24954819D02*
X122726190Y-25002438D01*
X122726190Y-25002438D02*
X122773809Y-25050057D01*
X122773809Y-25050057D02*
X122821428Y-25145295D01*
X122821428Y-25145295D02*
X122821428Y-25288152D01*
X122821428Y-25288152D02*
X122773809Y-25383390D01*
X122773809Y-25383390D02*
X122726190Y-25431009D01*
X122726190Y-25431009D02*
X122630952Y-25478628D01*
X122630952Y-25478628D02*
X122250000Y-25478628D01*
X123154762Y-24954819D02*
X123392857Y-25954819D01*
X123392857Y-25954819D02*
X123583333Y-25240533D01*
X123583333Y-25240533D02*
X123773809Y-25954819D01*
X123773809Y-25954819D02*
X124011905Y-24954819D01*
X124916666Y-25954819D02*
X124345238Y-25954819D01*
X124630952Y-25954819D02*
X124630952Y-24954819D01*
X124630952Y-24954819D02*
X124535714Y-25097676D01*
X124535714Y-25097676D02*
X124440476Y-25192914D01*
X124440476Y-25192914D02*
X124345238Y-25240533D01*
X127642856Y-84454819D02*
X127309523Y-83978628D01*
X127071428Y-84454819D02*
X127071428Y-83454819D01*
X127071428Y-83454819D02*
X127452380Y-83454819D01*
X127452380Y-83454819D02*
X127547618Y-83502438D01*
X127547618Y-83502438D02*
X127595237Y-83550057D01*
X127595237Y-83550057D02*
X127642856Y-83645295D01*
X127642856Y-83645295D02*
X127642856Y-83788152D01*
X127642856Y-83788152D02*
X127595237Y-83883390D01*
X127595237Y-83883390D02*
X127547618Y-83931009D01*
X127547618Y-83931009D02*
X127452380Y-83978628D01*
X127452380Y-83978628D02*
X127071428Y-83978628D01*
X128404761Y-83931009D02*
X128547618Y-83978628D01*
X128547618Y-83978628D02*
X128595237Y-84026247D01*
X128595237Y-84026247D02*
X128642856Y-84121485D01*
X128642856Y-84121485D02*
X128642856Y-84264342D01*
X128642856Y-84264342D02*
X128595237Y-84359580D01*
X128595237Y-84359580D02*
X128547618Y-84407200D01*
X128547618Y-84407200D02*
X128452380Y-84454819D01*
X128452380Y-84454819D02*
X128071428Y-84454819D01*
X128071428Y-84454819D02*
X128071428Y-83454819D01*
X128071428Y-83454819D02*
X128404761Y-83454819D01*
X128404761Y-83454819D02*
X128499999Y-83502438D01*
X128499999Y-83502438D02*
X128547618Y-83550057D01*
X128547618Y-83550057D02*
X128595237Y-83645295D01*
X128595237Y-83645295D02*
X128595237Y-83740533D01*
X128595237Y-83740533D02*
X128547618Y-83835771D01*
X128547618Y-83835771D02*
X128499999Y-83883390D01*
X128499999Y-83883390D02*
X128404761Y-83931009D01*
X128404761Y-83931009D02*
X128071428Y-83931009D01*
X129023809Y-84169104D02*
X129499999Y-84169104D01*
X128928571Y-84454819D02*
X129261904Y-83454819D01*
X129261904Y-83454819D02*
X129595237Y-84454819D01*
X129785714Y-83454819D02*
X130357142Y-83454819D01*
X130071428Y-84454819D02*
X130071428Y-83454819D01*
X130547619Y-83454819D02*
X131119047Y-83454819D01*
X130833333Y-84454819D02*
X130833333Y-83454819D01*
X131976190Y-84454819D02*
X131404762Y-84454819D01*
X131690476Y-84454819D02*
X131690476Y-83454819D01*
X131690476Y-83454819D02*
X131595238Y-83597676D01*
X131595238Y-83597676D02*
X131500000Y-83692914D01*
X131500000Y-83692914D02*
X131404762Y-83740533D01*
X110773809Y-33704819D02*
X110773809Y-32704819D01*
X110773809Y-32704819D02*
X111011904Y-32704819D01*
X111011904Y-32704819D02*
X111154761Y-32752438D01*
X111154761Y-32752438D02*
X111249999Y-32847676D01*
X111249999Y-32847676D02*
X111297618Y-32942914D01*
X111297618Y-32942914D02*
X111345237Y-33133390D01*
X111345237Y-33133390D02*
X111345237Y-33276247D01*
X111345237Y-33276247D02*
X111297618Y-33466723D01*
X111297618Y-33466723D02*
X111249999Y-33561961D01*
X111249999Y-33561961D02*
X111154761Y-33657200D01*
X111154761Y-33657200D02*
X111011904Y-33704819D01*
X111011904Y-33704819D02*
X110773809Y-33704819D01*
X111773809Y-33704819D02*
X111773809Y-32704819D01*
X111773809Y-32704819D02*
X112154761Y-32704819D01*
X112154761Y-32704819D02*
X112249999Y-32752438D01*
X112249999Y-32752438D02*
X112297618Y-32800057D01*
X112297618Y-32800057D02*
X112345237Y-32895295D01*
X112345237Y-32895295D02*
X112345237Y-33038152D01*
X112345237Y-33038152D02*
X112297618Y-33133390D01*
X112297618Y-33133390D02*
X112249999Y-33181009D01*
X112249999Y-33181009D02*
X112154761Y-33228628D01*
X112154761Y-33228628D02*
X111773809Y-33228628D01*
X112726190Y-33419104D02*
X113202380Y-33419104D01*
X112630952Y-33704819D02*
X112964285Y-32704819D01*
X112964285Y-32704819D02*
X113297618Y-33704819D01*
X113630952Y-33704819D02*
X113630952Y-32704819D01*
X113630952Y-32704819D02*
X113869047Y-32704819D01*
X113869047Y-32704819D02*
X114011904Y-32752438D01*
X114011904Y-32752438D02*
X114107142Y-32847676D01*
X114107142Y-32847676D02*
X114154761Y-32942914D01*
X114154761Y-32942914D02*
X114202380Y-33133390D01*
X114202380Y-33133390D02*
X114202380Y-33276247D01*
X114202380Y-33276247D02*
X114154761Y-33466723D01*
X114154761Y-33466723D02*
X114107142Y-33561961D01*
X114107142Y-33561961D02*
X114011904Y-33657200D01*
X114011904Y-33657200D02*
X113869047Y-33704819D01*
X113869047Y-33704819D02*
X113630952Y-33704819D01*
X114392857Y-33800057D02*
X115154761Y-33800057D01*
X115964285Y-33704819D02*
X115630952Y-33228628D01*
X115392857Y-33704819D02*
X115392857Y-32704819D01*
X115392857Y-32704819D02*
X115773809Y-32704819D01*
X115773809Y-32704819D02*
X115869047Y-32752438D01*
X115869047Y-32752438D02*
X115916666Y-32800057D01*
X115916666Y-32800057D02*
X115964285Y-32895295D01*
X115964285Y-32895295D02*
X115964285Y-33038152D01*
X115964285Y-33038152D02*
X115916666Y-33133390D01*
X115916666Y-33133390D02*
X115869047Y-33181009D01*
X115869047Y-33181009D02*
X115773809Y-33228628D01*
X115773809Y-33228628D02*
X115392857Y-33228628D01*
X116345238Y-33419104D02*
X116821428Y-33419104D01*
X116250000Y-33704819D02*
X116583333Y-32704819D01*
X116583333Y-32704819D02*
X116916666Y-33704819D01*
X117773809Y-33704819D02*
X117202381Y-33704819D01*
X117488095Y-33704819D02*
X117488095Y-32704819D01*
X117488095Y-32704819D02*
X117392857Y-32847676D01*
X117392857Y-32847676D02*
X117297619Y-32942914D01*
X117297619Y-32942914D02*
X117202381Y-32990533D01*
X124952380Y-41684819D02*
X124619047Y-41208628D01*
X124380952Y-41684819D02*
X124380952Y-40684819D01*
X124380952Y-40684819D02*
X124761904Y-40684819D01*
X124761904Y-40684819D02*
X124857142Y-40732438D01*
X124857142Y-40732438D02*
X124904761Y-40780057D01*
X124904761Y-40780057D02*
X124952380Y-40875295D01*
X124952380Y-40875295D02*
X124952380Y-41018152D01*
X124952380Y-41018152D02*
X124904761Y-41113390D01*
X124904761Y-41113390D02*
X124857142Y-41161009D01*
X124857142Y-41161009D02*
X124761904Y-41208628D01*
X124761904Y-41208628D02*
X124380952Y-41208628D01*
X125380952Y-41161009D02*
X125714285Y-41161009D01*
X125857142Y-41684819D02*
X125380952Y-41684819D01*
X125380952Y-41684819D02*
X125380952Y-40684819D01*
X125380952Y-40684819D02*
X125857142Y-40684819D01*
X126238095Y-41637200D02*
X126380952Y-41684819D01*
X126380952Y-41684819D02*
X126619047Y-41684819D01*
X126619047Y-41684819D02*
X126714285Y-41637200D01*
X126714285Y-41637200D02*
X126761904Y-41589580D01*
X126761904Y-41589580D02*
X126809523Y-41494342D01*
X126809523Y-41494342D02*
X126809523Y-41399104D01*
X126809523Y-41399104D02*
X126761904Y-41303866D01*
X126761904Y-41303866D02*
X126714285Y-41256247D01*
X126714285Y-41256247D02*
X126619047Y-41208628D01*
X126619047Y-41208628D02*
X126428571Y-41161009D01*
X126428571Y-41161009D02*
X126333333Y-41113390D01*
X126333333Y-41113390D02*
X126285714Y-41065771D01*
X126285714Y-41065771D02*
X126238095Y-40970533D01*
X126238095Y-40970533D02*
X126238095Y-40875295D01*
X126238095Y-40875295D02*
X126285714Y-40780057D01*
X126285714Y-40780057D02*
X126333333Y-40732438D01*
X126333333Y-40732438D02*
X126428571Y-40684819D01*
X126428571Y-40684819D02*
X126666666Y-40684819D01*
X126666666Y-40684819D02*
X126809523Y-40732438D01*
X127238095Y-41684819D02*
X127238095Y-40684819D01*
X127238095Y-40684819D02*
X127619047Y-40684819D01*
X127619047Y-40684819D02*
X127714285Y-40732438D01*
X127714285Y-40732438D02*
X127761904Y-40780057D01*
X127761904Y-40780057D02*
X127809523Y-40875295D01*
X127809523Y-40875295D02*
X127809523Y-41018152D01*
X127809523Y-41018152D02*
X127761904Y-41113390D01*
X127761904Y-41113390D02*
X127714285Y-41161009D01*
X127714285Y-41161009D02*
X127619047Y-41208628D01*
X127619047Y-41208628D02*
X127238095Y-41208628D01*
X128142857Y-40684819D02*
X128761904Y-40684819D01*
X128761904Y-40684819D02*
X128428571Y-41065771D01*
X128428571Y-41065771D02*
X128571428Y-41065771D01*
X128571428Y-41065771D02*
X128666666Y-41113390D01*
X128666666Y-41113390D02*
X128714285Y-41161009D01*
X128714285Y-41161009D02*
X128761904Y-41256247D01*
X128761904Y-41256247D02*
X128761904Y-41494342D01*
X128761904Y-41494342D02*
X128714285Y-41589580D01*
X128714285Y-41589580D02*
X128666666Y-41637200D01*
X128666666Y-41637200D02*
X128571428Y-41684819D01*
X128571428Y-41684819D02*
X128285714Y-41684819D01*
X128285714Y-41684819D02*
X128190476Y-41637200D01*
X128190476Y-41637200D02*
X128142857Y-41589580D01*
X129142857Y-40780057D02*
X129190476Y-40732438D01*
X129190476Y-40732438D02*
X129285714Y-40684819D01*
X129285714Y-40684819D02*
X129523809Y-40684819D01*
X129523809Y-40684819D02*
X129619047Y-40732438D01*
X129619047Y-40732438D02*
X129666666Y-40780057D01*
X129666666Y-40780057D02*
X129714285Y-40875295D01*
X129714285Y-40875295D02*
X129714285Y-40970533D01*
X129714285Y-40970533D02*
X129666666Y-41113390D01*
X129666666Y-41113390D02*
X129095238Y-41684819D01*
X129095238Y-41684819D02*
X129714285Y-41684819D01*
X130714285Y-41684819D02*
X130380952Y-41208628D01*
X130142857Y-41684819D02*
X130142857Y-40684819D01*
X130142857Y-40684819D02*
X130523809Y-40684819D01*
X130523809Y-40684819D02*
X130619047Y-40732438D01*
X130619047Y-40732438D02*
X130666666Y-40780057D01*
X130666666Y-40780057D02*
X130714285Y-40875295D01*
X130714285Y-40875295D02*
X130714285Y-41018152D01*
X130714285Y-41018152D02*
X130666666Y-41113390D01*
X130666666Y-41113390D02*
X130619047Y-41161009D01*
X130619047Y-41161009D02*
X130523809Y-41208628D01*
X130523809Y-41208628D02*
X130142857Y-41208628D01*
X131666666Y-41684819D02*
X131095238Y-41684819D01*
X131380952Y-41684819D02*
X131380952Y-40684819D01*
X131380952Y-40684819D02*
X131285714Y-40827676D01*
X131285714Y-40827676D02*
X131190476Y-40922914D01*
X131190476Y-40922914D02*
X131095238Y-40970533D01*
X111047618Y-41684819D02*
X110714285Y-41208628D01*
X110476190Y-41684819D02*
X110476190Y-40684819D01*
X110476190Y-40684819D02*
X110857142Y-40684819D01*
X110857142Y-40684819D02*
X110952380Y-40732438D01*
X110952380Y-40732438D02*
X110999999Y-40780057D01*
X110999999Y-40780057D02*
X111047618Y-40875295D01*
X111047618Y-40875295D02*
X111047618Y-41018152D01*
X111047618Y-41018152D02*
X110999999Y-41113390D01*
X110999999Y-41113390D02*
X110952380Y-41161009D01*
X110952380Y-41161009D02*
X110857142Y-41208628D01*
X110857142Y-41208628D02*
X110476190Y-41208628D01*
X111476190Y-41161009D02*
X111809523Y-41161009D01*
X111952380Y-41684819D02*
X111476190Y-41684819D01*
X111476190Y-41684819D02*
X111476190Y-40684819D01*
X111476190Y-40684819D02*
X111952380Y-40684819D01*
X112333333Y-41637200D02*
X112476190Y-41684819D01*
X112476190Y-41684819D02*
X112714285Y-41684819D01*
X112714285Y-41684819D02*
X112809523Y-41637200D01*
X112809523Y-41637200D02*
X112857142Y-41589580D01*
X112857142Y-41589580D02*
X112904761Y-41494342D01*
X112904761Y-41494342D02*
X112904761Y-41399104D01*
X112904761Y-41399104D02*
X112857142Y-41303866D01*
X112857142Y-41303866D02*
X112809523Y-41256247D01*
X112809523Y-41256247D02*
X112714285Y-41208628D01*
X112714285Y-41208628D02*
X112523809Y-41161009D01*
X112523809Y-41161009D02*
X112428571Y-41113390D01*
X112428571Y-41113390D02*
X112380952Y-41065771D01*
X112380952Y-41065771D02*
X112333333Y-40970533D01*
X112333333Y-40970533D02*
X112333333Y-40875295D01*
X112333333Y-40875295D02*
X112380952Y-40780057D01*
X112380952Y-40780057D02*
X112428571Y-40732438D01*
X112428571Y-40732438D02*
X112523809Y-40684819D01*
X112523809Y-40684819D02*
X112761904Y-40684819D01*
X112761904Y-40684819D02*
X112904761Y-40732438D01*
X113333333Y-41684819D02*
X113333333Y-40684819D01*
X113333333Y-40684819D02*
X113714285Y-40684819D01*
X113714285Y-40684819D02*
X113809523Y-40732438D01*
X113809523Y-40732438D02*
X113857142Y-40780057D01*
X113857142Y-40780057D02*
X113904761Y-40875295D01*
X113904761Y-40875295D02*
X113904761Y-41018152D01*
X113904761Y-41018152D02*
X113857142Y-41113390D01*
X113857142Y-41113390D02*
X113809523Y-41161009D01*
X113809523Y-41161009D02*
X113714285Y-41208628D01*
X113714285Y-41208628D02*
X113333333Y-41208628D01*
X114238095Y-40684819D02*
X114857142Y-40684819D01*
X114857142Y-40684819D02*
X114523809Y-41065771D01*
X114523809Y-41065771D02*
X114666666Y-41065771D01*
X114666666Y-41065771D02*
X114761904Y-41113390D01*
X114761904Y-41113390D02*
X114809523Y-41161009D01*
X114809523Y-41161009D02*
X114857142Y-41256247D01*
X114857142Y-41256247D02*
X114857142Y-41494342D01*
X114857142Y-41494342D02*
X114809523Y-41589580D01*
X114809523Y-41589580D02*
X114761904Y-41637200D01*
X114761904Y-41637200D02*
X114666666Y-41684819D01*
X114666666Y-41684819D02*
X114380952Y-41684819D01*
X114380952Y-41684819D02*
X114285714Y-41637200D01*
X114285714Y-41637200D02*
X114238095Y-41589580D01*
X115238095Y-40780057D02*
X115285714Y-40732438D01*
X115285714Y-40732438D02*
X115380952Y-40684819D01*
X115380952Y-40684819D02*
X115619047Y-40684819D01*
X115619047Y-40684819D02*
X115714285Y-40732438D01*
X115714285Y-40732438D02*
X115761904Y-40780057D01*
X115761904Y-40780057D02*
X115809523Y-40875295D01*
X115809523Y-40875295D02*
X115809523Y-40970533D01*
X115809523Y-40970533D02*
X115761904Y-41113390D01*
X115761904Y-41113390D02*
X115190476Y-41684819D01*
X115190476Y-41684819D02*
X115809523Y-41684819D01*
X116714285Y-41684819D02*
X116238095Y-41684819D01*
X116238095Y-41684819D02*
X116238095Y-40684819D01*
X117571428Y-41684819D02*
X117000000Y-41684819D01*
X117285714Y-41684819D02*
X117285714Y-40684819D01*
X117285714Y-40684819D02*
X117190476Y-40827676D01*
X117190476Y-40827676D02*
X117095238Y-40922914D01*
X117095238Y-40922914D02*
X117000000Y-40970533D01*
X117476190Y-41454819D02*
X117476190Y-40454819D01*
X117476190Y-40454819D02*
X117714285Y-40454819D01*
X117714285Y-40454819D02*
X117857142Y-40502438D01*
X117857142Y-40502438D02*
X117952380Y-40597676D01*
X117952380Y-40597676D02*
X117999999Y-40692914D01*
X117999999Y-40692914D02*
X118047618Y-40883390D01*
X118047618Y-40883390D02*
X118047618Y-41026247D01*
X118047618Y-41026247D02*
X117999999Y-41216723D01*
X117999999Y-41216723D02*
X117952380Y-41311961D01*
X117952380Y-41311961D02*
X117857142Y-41407200D01*
X117857142Y-41407200D02*
X117714285Y-41454819D01*
X117714285Y-41454819D02*
X117476190Y-41454819D01*
X118476190Y-41454819D02*
X118476190Y-40454819D01*
X118476190Y-40454819D02*
X118857142Y-40454819D01*
X118857142Y-40454819D02*
X118952380Y-40502438D01*
X118952380Y-40502438D02*
X118999999Y-40550057D01*
X118999999Y-40550057D02*
X119047618Y-40645295D01*
X119047618Y-40645295D02*
X119047618Y-40788152D01*
X119047618Y-40788152D02*
X118999999Y-40883390D01*
X118999999Y-40883390D02*
X118952380Y-40931009D01*
X118952380Y-40931009D02*
X118857142Y-40978628D01*
X118857142Y-40978628D02*
X118476190Y-40978628D01*
X119428571Y-41169104D02*
X119904761Y-41169104D01*
X119333333Y-41454819D02*
X119666666Y-40454819D01*
X119666666Y-40454819D02*
X119999999Y-41454819D01*
X120333333Y-41454819D02*
X120333333Y-40454819D01*
X120333333Y-40454819D02*
X120571428Y-40454819D01*
X120571428Y-40454819D02*
X120714285Y-40502438D01*
X120714285Y-40502438D02*
X120809523Y-40597676D01*
X120809523Y-40597676D02*
X120857142Y-40692914D01*
X120857142Y-40692914D02*
X120904761Y-40883390D01*
X120904761Y-40883390D02*
X120904761Y-41026247D01*
X120904761Y-41026247D02*
X120857142Y-41216723D01*
X120857142Y-41216723D02*
X120809523Y-41311961D01*
X120809523Y-41311961D02*
X120714285Y-41407200D01*
X120714285Y-41407200D02*
X120571428Y-41454819D01*
X120571428Y-41454819D02*
X120333333Y-41454819D01*
X121095238Y-41550057D02*
X121857142Y-41550057D01*
X122666666Y-41454819D02*
X122333333Y-40978628D01*
X122095238Y-41454819D02*
X122095238Y-40454819D01*
X122095238Y-40454819D02*
X122476190Y-40454819D01*
X122476190Y-40454819D02*
X122571428Y-40502438D01*
X122571428Y-40502438D02*
X122619047Y-40550057D01*
X122619047Y-40550057D02*
X122666666Y-40645295D01*
X122666666Y-40645295D02*
X122666666Y-40788152D01*
X122666666Y-40788152D02*
X122619047Y-40883390D01*
X122619047Y-40883390D02*
X122571428Y-40931009D01*
X122571428Y-40931009D02*
X122476190Y-40978628D01*
X122476190Y-40978628D02*
X122095238Y-40978628D01*
X123047619Y-41407200D02*
X123190476Y-41454819D01*
X123190476Y-41454819D02*
X123428571Y-41454819D01*
X123428571Y-41454819D02*
X123523809Y-41407200D01*
X123523809Y-41407200D02*
X123571428Y-41359580D01*
X123571428Y-41359580D02*
X123619047Y-41264342D01*
X123619047Y-41264342D02*
X123619047Y-41169104D01*
X123619047Y-41169104D02*
X123571428Y-41073866D01*
X123571428Y-41073866D02*
X123523809Y-41026247D01*
X123523809Y-41026247D02*
X123428571Y-40978628D01*
X123428571Y-40978628D02*
X123238095Y-40931009D01*
X123238095Y-40931009D02*
X123142857Y-40883390D01*
X123142857Y-40883390D02*
X123095238Y-40835771D01*
X123095238Y-40835771D02*
X123047619Y-40740533D01*
X123047619Y-40740533D02*
X123047619Y-40645295D01*
X123047619Y-40645295D02*
X123095238Y-40550057D01*
X123095238Y-40550057D02*
X123142857Y-40502438D01*
X123142857Y-40502438D02*
X123238095Y-40454819D01*
X123238095Y-40454819D02*
X123476190Y-40454819D01*
X123476190Y-40454819D02*
X123619047Y-40502438D01*
X124571428Y-41454819D02*
X124000000Y-41454819D01*
X124285714Y-41454819D02*
X124285714Y-40454819D01*
X124285714Y-40454819D02*
X124190476Y-40597676D01*
X124190476Y-40597676D02*
X124095238Y-40692914D01*
X124095238Y-40692914D02*
X124000000Y-40740533D01*
X124452381Y-33704819D02*
X124452381Y-32704819D01*
X124452381Y-32704819D02*
X124690476Y-32704819D01*
X124690476Y-32704819D02*
X124833333Y-32752438D01*
X124833333Y-32752438D02*
X124928571Y-32847676D01*
X124928571Y-32847676D02*
X124976190Y-32942914D01*
X124976190Y-32942914D02*
X125023809Y-33133390D01*
X125023809Y-33133390D02*
X125023809Y-33276247D01*
X125023809Y-33276247D02*
X124976190Y-33466723D01*
X124976190Y-33466723D02*
X124928571Y-33561961D01*
X124928571Y-33561961D02*
X124833333Y-33657200D01*
X124833333Y-33657200D02*
X124690476Y-33704819D01*
X124690476Y-33704819D02*
X124452381Y-33704819D01*
X125452381Y-33704819D02*
X125452381Y-32704819D01*
X125452381Y-32704819D02*
X125833333Y-32704819D01*
X125833333Y-32704819D02*
X125928571Y-32752438D01*
X125928571Y-32752438D02*
X125976190Y-32800057D01*
X125976190Y-32800057D02*
X126023809Y-32895295D01*
X126023809Y-32895295D02*
X126023809Y-33038152D01*
X126023809Y-33038152D02*
X125976190Y-33133390D01*
X125976190Y-33133390D02*
X125928571Y-33181009D01*
X125928571Y-33181009D02*
X125833333Y-33228628D01*
X125833333Y-33228628D02*
X125452381Y-33228628D01*
X126404762Y-33419104D02*
X126880952Y-33419104D01*
X126309524Y-33704819D02*
X126642857Y-32704819D01*
X126642857Y-32704819D02*
X126976190Y-33704819D01*
X127309524Y-33704819D02*
X127309524Y-32704819D01*
X127309524Y-32704819D02*
X127547619Y-32704819D01*
X127547619Y-32704819D02*
X127690476Y-32752438D01*
X127690476Y-32752438D02*
X127785714Y-32847676D01*
X127785714Y-32847676D02*
X127833333Y-32942914D01*
X127833333Y-32942914D02*
X127880952Y-33133390D01*
X127880952Y-33133390D02*
X127880952Y-33276247D01*
X127880952Y-33276247D02*
X127833333Y-33466723D01*
X127833333Y-33466723D02*
X127785714Y-33561961D01*
X127785714Y-33561961D02*
X127690476Y-33657200D01*
X127690476Y-33657200D02*
X127547619Y-33704819D01*
X127547619Y-33704819D02*
X127309524Y-33704819D01*
X128071429Y-33800057D02*
X128833333Y-33800057D01*
X129642857Y-33704819D02*
X129309524Y-33228628D01*
X129071429Y-33704819D02*
X129071429Y-32704819D01*
X129071429Y-32704819D02*
X129452381Y-32704819D01*
X129452381Y-32704819D02*
X129547619Y-32752438D01*
X129547619Y-32752438D02*
X129595238Y-32800057D01*
X129595238Y-32800057D02*
X129642857Y-32895295D01*
X129642857Y-32895295D02*
X129642857Y-33038152D01*
X129642857Y-33038152D02*
X129595238Y-33133390D01*
X129595238Y-33133390D02*
X129547619Y-33181009D01*
X129547619Y-33181009D02*
X129452381Y-33228628D01*
X129452381Y-33228628D02*
X129071429Y-33228628D01*
X130071429Y-33704819D02*
X130071429Y-32704819D01*
X130071429Y-32704819D02*
X130309524Y-32704819D01*
X130309524Y-32704819D02*
X130452381Y-32752438D01*
X130452381Y-32752438D02*
X130547619Y-32847676D01*
X130547619Y-32847676D02*
X130595238Y-32942914D01*
X130595238Y-32942914D02*
X130642857Y-33133390D01*
X130642857Y-33133390D02*
X130642857Y-33276247D01*
X130642857Y-33276247D02*
X130595238Y-33466723D01*
X130595238Y-33466723D02*
X130547619Y-33561961D01*
X130547619Y-33561961D02*
X130452381Y-33657200D01*
X130452381Y-33657200D02*
X130309524Y-33704819D01*
X130309524Y-33704819D02*
X130071429Y-33704819D01*
X131595238Y-33704819D02*
X131023810Y-33704819D01*
X131309524Y-33704819D02*
X131309524Y-32704819D01*
X131309524Y-32704819D02*
X131214286Y-32847676D01*
X131214286Y-32847676D02*
X131119048Y-32942914D01*
X131119048Y-32942914D02*
X131023810Y-32990533D01*
X115159761Y-56552319D02*
X114826428Y-56076128D01*
X114588333Y-56552319D02*
X114588333Y-55552319D01*
X114588333Y-55552319D02*
X114969285Y-55552319D01*
X114969285Y-55552319D02*
X115064523Y-55599938D01*
X115064523Y-55599938D02*
X115112142Y-55647557D01*
X115112142Y-55647557D02*
X115159761Y-55742795D01*
X115159761Y-55742795D02*
X115159761Y-55885652D01*
X115159761Y-55885652D02*
X115112142Y-55980890D01*
X115112142Y-55980890D02*
X115064523Y-56028509D01*
X115064523Y-56028509D02*
X114969285Y-56076128D01*
X114969285Y-56076128D02*
X114588333Y-56076128D01*
X115874047Y-55552319D02*
X115874047Y-56266604D01*
X115874047Y-56266604D02*
X115826428Y-56409461D01*
X115826428Y-56409461D02*
X115731190Y-56504700D01*
X115731190Y-56504700D02*
X115588333Y-56552319D01*
X115588333Y-56552319D02*
X115493095Y-56552319D01*
X116540714Y-55552319D02*
X116731190Y-55552319D01*
X116731190Y-55552319D02*
X116826428Y-55599938D01*
X116826428Y-55599938D02*
X116921666Y-55695176D01*
X116921666Y-55695176D02*
X116969285Y-55885652D01*
X116969285Y-55885652D02*
X116969285Y-56218985D01*
X116969285Y-56218985D02*
X116921666Y-56409461D01*
X116921666Y-56409461D02*
X116826428Y-56504700D01*
X116826428Y-56504700D02*
X116731190Y-56552319D01*
X116731190Y-56552319D02*
X116540714Y-56552319D01*
X116540714Y-56552319D02*
X116445476Y-56504700D01*
X116445476Y-56504700D02*
X116350238Y-56409461D01*
X116350238Y-56409461D02*
X116302619Y-56218985D01*
X116302619Y-56218985D02*
X116302619Y-55885652D01*
X116302619Y-55885652D02*
X116350238Y-55695176D01*
X116350238Y-55695176D02*
X116445476Y-55599938D01*
X116445476Y-55599938D02*
X116540714Y-55552319D01*
X117588333Y-56076128D02*
X117588333Y-56552319D01*
X117255000Y-55552319D02*
X117588333Y-56076128D01*
X117588333Y-56076128D02*
X117921666Y-55552319D01*
X118207381Y-56504700D02*
X118350238Y-56552319D01*
X118350238Y-56552319D02*
X118588333Y-56552319D01*
X118588333Y-56552319D02*
X118683571Y-56504700D01*
X118683571Y-56504700D02*
X118731190Y-56457080D01*
X118731190Y-56457080D02*
X118778809Y-56361842D01*
X118778809Y-56361842D02*
X118778809Y-56266604D01*
X118778809Y-56266604D02*
X118731190Y-56171366D01*
X118731190Y-56171366D02*
X118683571Y-56123747D01*
X118683571Y-56123747D02*
X118588333Y-56076128D01*
X118588333Y-56076128D02*
X118397857Y-56028509D01*
X118397857Y-56028509D02*
X118302619Y-55980890D01*
X118302619Y-55980890D02*
X118255000Y-55933271D01*
X118255000Y-55933271D02*
X118207381Y-55838033D01*
X118207381Y-55838033D02*
X118207381Y-55742795D01*
X118207381Y-55742795D02*
X118255000Y-55647557D01*
X118255000Y-55647557D02*
X118302619Y-55599938D01*
X118302619Y-55599938D02*
X118397857Y-55552319D01*
X118397857Y-55552319D02*
X118635952Y-55552319D01*
X118635952Y-55552319D02*
X118778809Y-55599938D01*
X119064524Y-55552319D02*
X119635952Y-55552319D01*
X119350238Y-56552319D02*
X119350238Y-55552319D01*
X119969286Y-56552319D02*
X119969286Y-55552319D01*
X121016904Y-56457080D02*
X120969285Y-56504700D01*
X120969285Y-56504700D02*
X120826428Y-56552319D01*
X120826428Y-56552319D02*
X120731190Y-56552319D01*
X120731190Y-56552319D02*
X120588333Y-56504700D01*
X120588333Y-56504700D02*
X120493095Y-56409461D01*
X120493095Y-56409461D02*
X120445476Y-56314223D01*
X120445476Y-56314223D02*
X120397857Y-56123747D01*
X120397857Y-56123747D02*
X120397857Y-55980890D01*
X120397857Y-55980890D02*
X120445476Y-55790414D01*
X120445476Y-55790414D02*
X120493095Y-55695176D01*
X120493095Y-55695176D02*
X120588333Y-55599938D01*
X120588333Y-55599938D02*
X120731190Y-55552319D01*
X120731190Y-55552319D02*
X120826428Y-55552319D01*
X120826428Y-55552319D02*
X120969285Y-55599938D01*
X120969285Y-55599938D02*
X121016904Y-55647557D01*
X121445476Y-56552319D02*
X121445476Y-55552319D01*
X122016904Y-56552319D02*
X121588333Y-55980890D01*
X122016904Y-55552319D02*
X121445476Y-56123747D01*
X122969285Y-56552319D02*
X122397857Y-56552319D01*
X122683571Y-56552319D02*
X122683571Y-55552319D01*
X122683571Y-55552319D02*
X122588333Y-55695176D01*
X122588333Y-55695176D02*
X122493095Y-55790414D01*
X122493095Y-55790414D02*
X122397857Y-55838033D01*
X107206190Y-42494819D02*
X106872857Y-42018628D01*
X106634762Y-42494819D02*
X106634762Y-41494819D01*
X106634762Y-41494819D02*
X107015714Y-41494819D01*
X107015714Y-41494819D02*
X107110952Y-41542438D01*
X107110952Y-41542438D02*
X107158571Y-41590057D01*
X107158571Y-41590057D02*
X107206190Y-41685295D01*
X107206190Y-41685295D02*
X107206190Y-41828152D01*
X107206190Y-41828152D02*
X107158571Y-41923390D01*
X107158571Y-41923390D02*
X107110952Y-41971009D01*
X107110952Y-41971009D02*
X107015714Y-42018628D01*
X107015714Y-42018628D02*
X106634762Y-42018628D01*
X108110952Y-42494819D02*
X107634762Y-42494819D01*
X107634762Y-42494819D02*
X107634762Y-41494819D01*
X108444286Y-41971009D02*
X108777619Y-41971009D01*
X108920476Y-42494819D02*
X108444286Y-42494819D01*
X108444286Y-42494819D02*
X108444286Y-41494819D01*
X108444286Y-41494819D02*
X108920476Y-41494819D01*
X109349048Y-42494819D02*
X109349048Y-41494819D01*
X109349048Y-41494819D02*
X109587143Y-41494819D01*
X109587143Y-41494819D02*
X109730000Y-41542438D01*
X109730000Y-41542438D02*
X109825238Y-41637676D01*
X109825238Y-41637676D02*
X109872857Y-41732914D01*
X109872857Y-41732914D02*
X109920476Y-41923390D01*
X109920476Y-41923390D02*
X109920476Y-42066247D01*
X109920476Y-42066247D02*
X109872857Y-42256723D01*
X109872857Y-42256723D02*
X109825238Y-42351961D01*
X109825238Y-42351961D02*
X109730000Y-42447200D01*
X109730000Y-42447200D02*
X109587143Y-42494819D01*
X109587143Y-42494819D02*
X109349048Y-42494819D01*
X110872857Y-42494819D02*
X110301429Y-42494819D01*
X110587143Y-42494819D02*
X110587143Y-41494819D01*
X110587143Y-41494819D02*
X110491905Y-41637676D01*
X110491905Y-41637676D02*
X110396667Y-41732914D01*
X110396667Y-41732914D02*
X110301429Y-41780533D01*
D11*
%TO.C,DPAD_RW1*%
X117750000Y-29000000D02*
X117750000Y-30500000D01*
X119000000Y-33000000D02*
X123500000Y-33000000D01*
X123500000Y-26500000D02*
X119000000Y-26500000D01*
X124750000Y-30500000D02*
X124750000Y-29000000D01*
%TO.C,RBATT1*%
X126440000Y-85090000D02*
X126440000Y-92910000D01*
X126440000Y-86690000D02*
X127360000Y-86690000D01*
X126440000Y-92910000D02*
X132560000Y-92910000D01*
X127360000Y-85090000D02*
X126440000Y-85090000D01*
X127360000Y-86690000D02*
X127360000Y-85090000D01*
X127640000Y-86690000D02*
X127360000Y-86690000D01*
X127640000Y-86690000D02*
X127640000Y-85475000D01*
X127700000Y-90650000D02*
X127700000Y-92910000D01*
X128200000Y-90650000D02*
X128200000Y-92910000D01*
X129000000Y-88550000D02*
X130000000Y-88550000D01*
X129000000Y-92910000D02*
X129000000Y-88550000D01*
X130000000Y-88550000D02*
X130000000Y-92910000D01*
X131640000Y-85090000D02*
X131640000Y-86690000D01*
X131640000Y-86690000D02*
X131360000Y-86690000D01*
X132560000Y-85090000D02*
X131640000Y-85090000D01*
X132560000Y-86690000D02*
X131640000Y-86690000D01*
X132560000Y-92910000D02*
X132560000Y-85090000D01*
X127200000Y-89050000D02*
X128200000Y-89050000D01*
X128200000Y-90650000D01*
X127200000Y-90650000D01*
X127200000Y-89050000D01*
X130800000Y-89050000D02*
X131800000Y-89050000D01*
X131800000Y-90650000D01*
X130800000Y-90650000D01*
X130800000Y-89050000D01*
%TO.C,DPAD_RA1*%
X110750000Y-36750000D02*
X110750000Y-38250000D01*
X112000000Y-40750000D02*
X116500000Y-40750000D01*
X116500000Y-34250000D02*
X112000000Y-34250000D01*
X117750000Y-38250000D02*
X117750000Y-36750000D01*
%TO.C,RESP32R1*%
X126620000Y-42230000D02*
X128000000Y-42230000D01*
X126620000Y-43610000D02*
X126620000Y-42230000D01*
X126620000Y-44880000D02*
X126620000Y-62770000D01*
X126620000Y-44880000D02*
X129380000Y-44880000D01*
X126620000Y-62770000D02*
X129380000Y-62770000D01*
X129380000Y-44880000D02*
X129380000Y-62770000D01*
%TO.C,RESP32L1*%
X112620000Y-42230000D02*
X114000000Y-42230000D01*
X112620000Y-43610000D02*
X112620000Y-42230000D01*
X112620000Y-44880000D02*
X112620000Y-62770000D01*
X112620000Y-44880000D02*
X115380000Y-44880000D01*
X112620000Y-62770000D02*
X115380000Y-62770000D01*
X115380000Y-44880000D02*
X115380000Y-62770000D01*
%TO.C,DPAD_RS1*%
X117500000Y-44500000D02*
X117500000Y-46000000D01*
X118750000Y-48500000D02*
X123250000Y-48500000D01*
X123250000Y-42000000D02*
X118750000Y-42000000D01*
X124500000Y-46000000D02*
X124500000Y-44500000D01*
%TO.C,DPAD_RD1*%
X124500000Y-36750000D02*
X124500000Y-38250000D01*
X125750000Y-40750000D02*
X130250000Y-40750000D01*
X130250000Y-34250000D02*
X125750000Y-34250000D01*
X131500000Y-38250000D02*
X131500000Y-36750000D01*
D12*
%TO.C,RJOYSTICK1*%
X110280000Y-66432500D02*
X113430000Y-66432500D01*
X110280000Y-76232500D02*
X110280000Y-66432500D01*
X113430000Y-76232500D02*
X110280000Y-76232500D01*
X113430000Y-76502500D02*
X113430000Y-76232500D01*
X115310000Y-63332500D02*
X115930000Y-63332500D01*
X115930000Y-57032500D02*
X126830000Y-57032500D01*
X115930000Y-63332500D02*
X115930000Y-57032500D01*
X116530000Y-79232500D02*
X115310000Y-79232500D01*
X116530000Y-82432500D02*
X116530000Y-79232500D01*
X126230000Y-79232500D02*
X126230000Y-82432500D01*
X126830000Y-57032500D02*
X126830000Y-63332500D01*
X126830000Y-63332500D02*
X127460000Y-63332500D01*
X127460000Y-79232500D02*
X126230000Y-79232500D01*
X129330000Y-67232500D02*
X130880000Y-67232500D01*
X129330000Y-75332500D02*
X129330000Y-76452500D01*
X130880000Y-67232500D02*
X130880000Y-75332500D01*
X130880000Y-75332500D02*
X129330000Y-75332500D01*
D13*
X115430000Y-57982500D02*
G75*
G02*
X115230000Y-57982500I-100000J0D01*
G01*
X115230000Y-57982500D02*
G75*
G02*
X115430000Y-57982500I100000J0D01*
G01*
D11*
%TO.C,RLED1*%
X107170000Y-43764000D02*
X107170000Y-43920000D01*
X107170000Y-46080000D02*
X107170000Y-46236000D01*
X107170000Y-43764484D02*
G75*
G02*
X110401437Y-43920000I1560000J-1235516D01*
G01*
X107689039Y-43920000D02*
G75*
G02*
X109770961Y-43920000I1040961J-1080000D01*
G01*
X109770961Y-46080000D02*
G75*
G02*
X107689039Y-46080000I-1040961J1080000D01*
G01*
X110401437Y-46080000D02*
G75*
G02*
X107170000Y-46235516I-1671437J1080000D01*
G01*
%TD*%
D14*
%TO.C,RL1*%
X110000000Y-56250000D03*
X110000000Y-49250000D03*
D15*
X107510000Y-55000000D03*
X107510000Y-50500000D03*
%TD*%
D14*
%TO.C,R2S1*%
X110000000Y-86750000D03*
X110000000Y-79750000D03*
D15*
X107510000Y-85500000D03*
X107510000Y-81000000D03*
%TD*%
D14*
%TO.C,RS1*%
X125500000Y-23000000D03*
X132500000Y-23000000D03*
D15*
X126750000Y-20510000D03*
X131250000Y-20510000D03*
%TD*%
D14*
%TO.C,RR1*%
X109990000Y-28500000D03*
X109990000Y-21500000D03*
D15*
X107500000Y-27250000D03*
X107500000Y-22750000D03*
%TD*%
D14*
%TO.C,RM1*%
X114250000Y-23000000D03*
X121250000Y-23000000D03*
D15*
X115500000Y-20510000D03*
X120000000Y-20510000D03*
%TD*%
M02*
