%TF.GenerationSoftware,KiCad,Pcbnew,9.0.7+1*%
%TF.CreationDate,2026-03-11T21:49:18+08:00*%
%TF.ProjectId,d1minijoycon,64316d69-6e69-46a6-9f79-636f6e2e6b69,rev?*%
%TF.SameCoordinates,Original*%
%TF.FileFunction,Copper,L1,Top*%
%TF.FilePolarity,Positive*%
%FSLAX46Y46*%
G04 Gerber Fmt 4.6, Leading zero omitted, Abs format (unit mm)*
G04 Created by KiCad (PCBNEW 9.0.7+1) date 2026-03-11 21:49:18*
%MOMM*%
%LPD*%
G01*
G04 APERTURE LIST*
G04 Aperture macros list*
%AMRoundRect*
0 Rectangle with rounded corners*
0 $1 Rounding radius*
0 $2 $3 $4 $5 $6 $7 $8 $9 X,Y pos of 4 corners*
0 Add a 4 corners polygon primitive as box body*
4,1,4,$2,$3,$4,$5,$6,$7,$8,$9,$2,$3,0*
0 Add four circle primitives for the rounded corners*
1,1,$1+$1,$2,$3*
1,1,$1+$1,$4,$5*
1,1,$1+$1,$6,$7*
1,1,$1+$1,$8,$9*
0 Add four rect primitives between the rounded corners*
20,1,$1+$1,$2,$3,$4,$5,0*
20,1,$1+$1,$4,$5,$6,$7,0*
20,1,$1+$1,$6,$7,$8,$9,0*
20,1,$1+$1,$8,$9,$2,$3,0*%
G04 Aperture macros list end*
%TA.AperFunction,NonConductor*%
%ADD10C,0.200000*%
%TD*%
%TA.AperFunction,ComponentPad*%
%ADD11C,2.000000*%
%TD*%
%TA.AperFunction,ComponentPad*%
%ADD12C,1.400000*%
%TD*%
%TA.AperFunction,ComponentPad*%
%ADD13RoundRect,0.250000X-0.350000X-0.625000X0.350000X-0.625000X0.350000X0.625000X-0.350000X0.625000X0*%
%TD*%
%TA.AperFunction,ComponentPad*%
%ADD14O,1.200000X1.750000*%
%TD*%
%TA.AperFunction,ComponentPad*%
%ADD15R,1.700000X1.700000*%
%TD*%
%TA.AperFunction,ComponentPad*%
%ADD16C,1.700000*%
%TD*%
%TA.AperFunction,ComponentPad*%
%ADD17C,1.778000*%
%TD*%
%TA.AperFunction,ComponentPad*%
%ADD18C,2.286000*%
%TD*%
%TA.AperFunction,ComponentPad*%
%ADD19R,1.800000X1.800000*%
%TD*%
%TA.AperFunction,ComponentPad*%
%ADD20C,1.800000*%
%TD*%
%TA.AperFunction,ViaPad*%
%ADD21C,0.600000*%
%TD*%
%TA.AperFunction,Conductor*%
%ADD22C,0.200000*%
%TD*%
G04 APERTURE END LIST*
D10*
X104999998Y-18950000D02*
X133999998Y-18950000D01*
X133999998Y-88950000D01*
X104999998Y-88950000D01*
X104999998Y-18950000D01*
D11*
%TO.P,DPAD_RW1,1,1*%
%TO.N,Net-(RESP32R1-Pin_2)*%
X118000000Y-27500000D03*
X124500000Y-27500000D03*
%TO.P,DPAD_RW1,2,2*%
%TO.N,Net-(RBATT1-Pin_1)*%
X118000000Y-32000000D03*
X124500000Y-32000000D03*
%TD*%
%TO.P,RL1,*%
%TO.N,*%
X110000000Y-56250000D03*
X110000000Y-49250000D03*
D12*
%TO.P,RL1,1,1*%
%TO.N,Net-(RESP32R1-Pin_8)*%
X107510000Y-55000000D03*
%TO.P,RL1,2,2*%
%TO.N,Net-(RBATT1-Pin_1)*%
X107510000Y-50500000D03*
%TD*%
D11*
%TO.P,R2S1,*%
%TO.N,*%
X110000000Y-86750000D03*
X110000000Y-79750000D03*
D12*
%TO.P,R2S1,1,1*%
%TO.N,Net-(RESP32R1-Pin_7)*%
X107510000Y-85500000D03*
%TO.P,R2S1,2,2*%
%TO.N,Net-(RBATT1-Pin_1)*%
X107510000Y-81000000D03*
%TD*%
D13*
%TO.P,RBATT1,1,Pin_1*%
%TO.N,Net-(RBATT1-Pin_1)*%
X128500000Y-86550000D03*
D14*
%TO.P,RBATT1,2,Pin_2*%
%TO.N,Net-(RBATT1-Pin_2)*%
X130500000Y-86550000D03*
%TD*%
D11*
%TO.P,DPAD_RA1,1,1*%
%TO.N,Net-(RESP32R1-Pin_3)*%
X111000000Y-35250000D03*
X117500000Y-35250000D03*
%TO.P,DPAD_RA1,2,2*%
%TO.N,Net-(RBATT1-Pin_1)*%
X111000000Y-39750000D03*
X117500000Y-39750000D03*
%TD*%
%TO.P,RS1,*%
%TO.N,*%
X125500000Y-23000000D03*
X132500000Y-23000000D03*
D12*
%TO.P,RS1,1,1*%
%TO.N,Net-(RESP32R1-Pin_6)*%
X126750000Y-20510000D03*
%TO.P,RS1,2,2*%
%TO.N,Net-(RBATT1-Pin_1)*%
X131250000Y-20510000D03*
%TD*%
D15*
%TO.P,RESP32R1,1*%
%TO.N,N/C*%
X128000000Y-43610000D03*
D16*
%TO.P,RESP32R1,2*%
X128000000Y-46150000D03*
%TO.P,RESP32R1,3*%
X128000000Y-48690000D03*
%TO.P,RESP32R1,4*%
X128000000Y-51230000D03*
%TO.P,RESP32R1,5,Pin_1*%
%TO.N,Net-(RESP32R1-Pin_1)*%
X128000000Y-53770000D03*
%TO.P,RESP32R1,6,Pin_2*%
%TO.N,Net-(RESP32R1-Pin_2)*%
X128000000Y-56310000D03*
%TO.P,RESP32R1,7,Pin_3*%
%TO.N,Net-(RESP32R1-Pin_3)*%
X128000000Y-58850000D03*
%TO.P,RESP32R1,8,Pin_4*%
%TO.N,Net-(RESP32R1-Pin_4)*%
X128000000Y-61390000D03*
%TD*%
D15*
%TO.P,RESP32L1,1,Pin_7*%
%TO.N,Net-(RESP32L1-Pin_7)*%
X114000000Y-43610000D03*
D16*
%TO.P,RESP32L1,2,Pin_6*%
%TO.N,Net-(RESP32L1-Pin_6)*%
X114000000Y-46150000D03*
%TO.P,RESP32L1,3,Pin_5*%
%TO.N,Net-(RESP32L1-Pin_5)*%
X114000000Y-48690000D03*
%TO.P,RESP32L1,4,Pin_4*%
%TO.N,Net-(RESP32L1-Pin_4)*%
X114000000Y-51230000D03*
%TO.P,RESP32L1,5*%
%TO.N,N/C*%
X114000000Y-53770000D03*
%TO.P,RESP32L1,6*%
X114000000Y-56310000D03*
%TO.P,RESP32L1,7*%
X114000000Y-58850000D03*
%TO.P,RESP32L1,8*%
X114000000Y-61390000D03*
%TD*%
D11*
%TO.P,DPAD_RS1,1,1*%
%TO.N,Net-(RESP32R1-Pin_5)*%
X117750000Y-43000000D03*
X124250000Y-43000000D03*
%TO.P,DPAD_RS1,2,2*%
%TO.N,Net-(RBATT1-Pin_1)*%
X117750000Y-47500000D03*
X124250000Y-47500000D03*
%TD*%
%TO.P,DPAD_RD1,1,1*%
%TO.N,Net-(RESP32R1-Pin_4)*%
X124750000Y-35250000D03*
X131250000Y-35250000D03*
%TO.P,DPAD_RD1,2,2*%
%TO.N,Net-(RBATT1-Pin_1)*%
X124750000Y-39750000D03*
X131250000Y-39750000D03*
%TD*%
D17*
%TO.P,RJOYSTICK1,B1A,SEL+*%
%TO.N,Net-(RESP32R1-Pin_1)*%
X118205000Y-58632500D03*
%TO.P,RJOYSTICK1,B1B*%
%TO.N,N/C*%
X124555000Y-58632500D03*
%TO.P,RJOYSTICK1,B2A,SEL-*%
%TO.N,Net-(RBATT1-Pin_2)*%
X118205000Y-63712500D03*
%TO.P,RJOYSTICK1,B2B*%
%TO.N,N/C*%
X124555000Y-63712500D03*
%TO.P,RJOYSTICK1,H1,H+*%
%TO.N,Net-(RBATT1-Pin_1)*%
X118840000Y-81492500D03*
%TO.P,RJOYSTICK1,H2,H*%
%TO.N,Net-(RESP32L1-Pin_5)*%
X121380000Y-81492500D03*
%TO.P,RJOYSTICK1,H3,H-*%
%TO.N,Net-(RBATT1-Pin_2)*%
X123920000Y-81492500D03*
D18*
%TO.P,RJOYSTICK1,S1,SHIELD*%
X113760000Y-64665000D03*
%TO.P,RJOYSTICK1,S2,SHIELD*%
X113760000Y-78000000D03*
%TO.P,RJOYSTICK1,S3,SHIELD*%
X129000000Y-78000000D03*
%TO.P,RJOYSTICK1,S4,SHIELD*%
X129000000Y-64665000D03*
D17*
%TO.P,RJOYSTICK1,V1,V+*%
%TO.N,Net-(RBATT1-Pin_1)*%
X111220000Y-68792500D03*
%TO.P,RJOYSTICK1,V2,V*%
%TO.N,Net-(RESP32L1-Pin_4)*%
X111220000Y-71332500D03*
%TO.P,RJOYSTICK1,V3,V-*%
%TO.N,Net-(RBATT1-Pin_2)*%
X111220000Y-73872500D03*
%TD*%
D11*
%TO.P,RR1,*%
%TO.N,*%
X109990000Y-28500000D03*
X109990000Y-21500000D03*
D12*
%TO.P,RR1,1,1*%
%TO.N,Net-(RESP32L1-Pin_6)*%
X107500000Y-27250000D03*
%TO.P,RR1,2,2*%
%TO.N,Net-(RBATT1-Pin_1)*%
X107500000Y-22750000D03*
%TD*%
D19*
%TO.P,RLED1,1,K*%
%TO.N,Net-(RESP32L1-Pin_8)*%
X107460000Y-45000000D03*
D20*
%TO.P,RLED1,2,A*%
%TO.N,Net-(RBATT1-Pin_2)*%
X110000000Y-45000000D03*
%TD*%
D11*
%TO.P,RM1,*%
%TO.N,*%
X114250000Y-23000000D03*
X121250000Y-23000000D03*
D12*
%TO.P,RM1,1,1*%
%TO.N,Net-(RBATT1-Pin_1)*%
X115500000Y-20510000D03*
%TO.P,RM1,2,2*%
%TO.N,Net-(RESP32L1-Pin_7)*%
X120000000Y-20510000D03*
%TD*%
D21*
%TO.N,Net-(RBATT1-Pin_2)*%
X111300700Y-63753700D03*
%TD*%
D22*
%TO.N,Net-(RESP32R1-Pin_3)*%
X122144500Y-52994500D02*
X128000000Y-58850000D01*
X122144500Y-39894500D02*
X122144500Y-52994500D01*
X117500000Y-35250000D02*
X122144500Y-39894500D01*
%TO.N,Net-(RBATT1-Pin_1)*%
X125588900Y-39750000D02*
X124750000Y-39750000D01*
X107510000Y-72502500D02*
X107510000Y-81000000D01*
X106461800Y-51548200D02*
X106461800Y-64034300D01*
X124500000Y-32000000D02*
X126060700Y-33560700D01*
X126060700Y-39278200D02*
X125588900Y-39750000D01*
X125588900Y-46161100D02*
X124250000Y-47500000D01*
X111220000Y-68792500D02*
X107510000Y-72502500D01*
X125588900Y-39750000D02*
X125588900Y-46161100D01*
X126060700Y-33560700D02*
X126060700Y-39278200D01*
X107510000Y-50500000D02*
X106461800Y-51548200D01*
X106461800Y-64034300D02*
X111220000Y-68792500D01*
%TO.N,Net-(RESP32R1-Pin_4)*%
X128000000Y-61390000D02*
X129151700Y-60238300D01*
X129151700Y-60238300D02*
X129151700Y-37348300D01*
X129151700Y-37348300D02*
X131250000Y-35250000D01*
%TO.N,Net-(RESP32R1-Pin_2)*%
X126790400Y-29790400D02*
X124500000Y-27500000D01*
X128000000Y-56310000D02*
X126790400Y-55100400D01*
X126790400Y-55100400D02*
X126790400Y-29790400D01*
%TO.N,Net-(RBATT1-Pin_2)*%
X111366400Y-63688000D02*
X111366400Y-46366400D01*
X113760000Y-78000000D02*
X113760000Y-67299400D01*
X113760000Y-64741800D02*
X113760000Y-64665000D01*
X111366400Y-46366400D02*
X110000000Y-45000000D01*
X113760000Y-67299400D02*
X113760000Y-67258100D01*
X113760000Y-64783100D02*
X113760000Y-64741800D01*
X111300700Y-63753700D02*
X111366400Y-63688000D01*
X113760000Y-67258100D02*
X113760000Y-66134400D01*
X130500000Y-86550000D02*
X130500000Y-79500000D01*
X111300700Y-63753700D02*
X111366400Y-63688000D01*
X111366400Y-63688000D02*
X111300700Y-63753700D01*
X113760000Y-66134400D02*
X113760000Y-64783100D01*
X130500000Y-79500000D02*
X129000000Y-78000000D01*
%TO.N,Net-(RESP32L1-Pin_7)*%
X114000000Y-26510000D02*
X114000000Y-43610000D01*
X120000000Y-20510000D02*
X114000000Y-26510000D01*
%TO.N,Net-(RESP32L1-Pin_6)*%
X107500000Y-27250000D02*
X107500000Y-39650000D01*
X107500000Y-39650000D02*
X114000000Y-46150000D01*
%TO.N,Net-(RESP32L1-Pin_4)*%
X112494100Y-67780600D02*
X112315300Y-67601800D01*
X112494100Y-70058400D02*
X112494100Y-67780600D01*
X112315300Y-52914700D02*
X114000000Y-51230000D01*
X111220000Y-71332500D02*
X112494100Y-70058400D01*
X112315300Y-67601800D02*
X112315300Y-52914700D01*
%TO.N,Net-(RESP32L1-Pin_5)*%
X121380000Y-81492500D02*
X121380000Y-56070000D01*
X121380000Y-56070000D02*
X114000000Y-48690000D01*
%TD*%
M02*
