%TF.GenerationSoftware,KiCad,Pcbnew,9.0.7+1*%
%TF.CreationDate,2026-03-11T21:49:19+08:00*%
%TF.ProjectId,d1minijoycon,64316d69-6e69-46a6-9f79-636f6e2e6b69,rev?*%
%TF.SameCoordinates,Original*%
%TF.FileFunction,Soldermask,Bot*%
%TF.FilePolarity,Negative*%
%FSLAX46Y46*%
G04 Gerber Fmt 4.6, Leading zero omitted, Abs format (unit mm)*
G04 Created by KiCad (PCBNEW 9.0.7+1) date 2026-03-11 21:49:19*
%MOMM*%
%LPD*%
G01*
G04 APERTURE LIST*
G04 Aperture macros list*
%AMRoundRect*
0 Rectangle with rounded corners*
0 $1 Rounding radius*
0 $2 $3 $4 $5 $6 $7 $8 $9 X,Y pos of 4 corners*
0 Add a 4 corners polygon primitive as box body*
4,1,4,$2,$3,$4,$5,$6,$7,$8,$9,$2,$3,0*
0 Add four circle primitives for the rounded corners*
1,1,$1+$1,$2,$3*
1,1,$1+$1,$4,$5*
1,1,$1+$1,$6,$7*
1,1,$1+$1,$8,$9*
0 Add four rect primitives between the rounded corners*
20,1,$1+$1,$2,$3,$4,$5,0*
20,1,$1+$1,$4,$5,$6,$7,0*
20,1,$1+$1,$6,$7,$8,$9,0*
20,1,$1+$1,$8,$9,$2,$3,0*%
G04 Aperture macros list end*
%ADD10C,2.000000*%
%ADD11C,1.400000*%
%ADD12RoundRect,0.250000X-0.350000X-0.625000X0.350000X-0.625000X0.350000X0.625000X-0.350000X0.625000X0*%
%ADD13O,1.200000X1.750000*%
%ADD14R,1.700000X1.700000*%
%ADD15C,1.700000*%
%ADD16C,1.982000*%
%ADD17C,2.490000*%
%ADD18R,1.800000X1.800000*%
%ADD19C,1.800000*%
G04 APERTURE END LIST*
D10*
%TO.C,DPAD_RW1*%
X118000000Y-27500000D03*
X124500000Y-27500000D03*
X118000000Y-32000000D03*
X124500000Y-32000000D03*
%TD*%
%TO.C,RL1*%
X110000000Y-56250000D03*
X110000000Y-49250000D03*
D11*
X107510000Y-55000000D03*
X107510000Y-50500000D03*
%TD*%
D10*
%TO.C,R2S1*%
X110000000Y-86750000D03*
X110000000Y-79750000D03*
D11*
X107510000Y-85500000D03*
X107510000Y-81000000D03*
%TD*%
D12*
%TO.C,RBATT1*%
X128500000Y-86550000D03*
D13*
X130500000Y-86550000D03*
%TD*%
D10*
%TO.C,DPAD_RA1*%
X111000000Y-35250000D03*
X117500000Y-35250000D03*
X111000000Y-39750000D03*
X117500000Y-39750000D03*
%TD*%
%TO.C,RS1*%
X125500000Y-23000000D03*
X132500000Y-23000000D03*
D11*
X126750000Y-20510000D03*
X131250000Y-20510000D03*
%TD*%
D14*
%TO.C,RESP32R1*%
X128000000Y-43610000D03*
D15*
X128000000Y-46150000D03*
X128000000Y-48690000D03*
X128000000Y-51230000D03*
X128000000Y-53770000D03*
X128000000Y-56310000D03*
X128000000Y-58850000D03*
X128000000Y-61390000D03*
%TD*%
D14*
%TO.C,RESP32L1*%
X114000000Y-43610000D03*
D15*
X114000000Y-46150000D03*
X114000000Y-48690000D03*
X114000000Y-51230000D03*
X114000000Y-53770000D03*
X114000000Y-56310000D03*
X114000000Y-58850000D03*
X114000000Y-61390000D03*
%TD*%
D10*
%TO.C,DPAD_RS1*%
X117750000Y-43000000D03*
X124250000Y-43000000D03*
X117750000Y-47500000D03*
X124250000Y-47500000D03*
%TD*%
%TO.C,DPAD_RD1*%
X124750000Y-35250000D03*
X131250000Y-35250000D03*
X124750000Y-39750000D03*
X131250000Y-39750000D03*
%TD*%
D16*
%TO.C,RJOYSTICK1*%
X118205000Y-58632500D03*
X124555000Y-58632500D03*
X118205000Y-63712500D03*
X124555000Y-63712500D03*
X118840000Y-81492500D03*
X121380000Y-81492500D03*
X123920000Y-81492500D03*
D17*
X113760000Y-64665000D03*
X113760000Y-78000000D03*
X129000000Y-78000000D03*
X129000000Y-64665000D03*
D16*
X111220000Y-68792500D03*
X111220000Y-71332500D03*
X111220000Y-73872500D03*
%TD*%
D10*
%TO.C,RR1*%
X109990000Y-28500000D03*
X109990000Y-21500000D03*
D11*
X107500000Y-27250000D03*
X107500000Y-22750000D03*
%TD*%
D18*
%TO.C,RLED1*%
X107460000Y-45000000D03*
D19*
X110000000Y-45000000D03*
%TD*%
D10*
%TO.C,RM1*%
X114250000Y-23000000D03*
X121250000Y-23000000D03*
D11*
X115500000Y-20510000D03*
X120000000Y-20510000D03*
%TD*%
M02*
